<?xml version="1.0" standalone="no"?>
<svg xmlns:xlink="http://www.w3.org/1999/xlink" xmlns="http://www.w3.org/2000/svg" id="svg" width="32" height="168"><path fill="#dd571c" d="M0,30 a30.4,30.4 0 0 1 30.4,-30.4 h0 a1.6,1.6 0 0 1 1.6,1.6 v29 a1.6,1.6 0 0 1 -1.6,1.6 h-29 a1.6,1.6 0 0 1 -1.6,-1.6 v-0 z"></path><path fill="#0d0907" d="M0,36 a1.6,1.6 0 0 1 1.6,-1.6 h0 a30.4,30.4 0 0 1 30.4,30.4 v0 a1.6,1.6 0 0 1 -1.6,1.6 h-29 a1.6,1.6 0 0 1 -1.6,-1.6 v-29 z"></path><path fill="#dd571c" d="M0,70 a1.6,1.6 0 0 1 1.6,-1.6 h29 a1.6,1.6 0 0 1 1.6,1.6 v0 a30.4,30.4 0 0 1 -30.4,30.4 h-0 a1.6,1.6 0 0 1 -1.6,-1.6 v-29 z"></path><path fill="#387c44" d="M0,104 a1.6,1.6 0 0 1 1.6,-1.6 h29 a1.6,1.6 0 0 1 1.6,1.6 v0 a30.4,30.4 0 0 1 -30.4,30.4 h-0 a1.6,1.6 0 0 1 -1.6,-1.6 v-29 z"></path><path fill="#0d0907" d="M0,138 a1.6,1.6 0 0 1 1.6,-1.6 h29 a1.6,1.6 0 0 1 1.6,1.6 v29 a1.6,1.6 0 0 1 -1.6,1.6 h-0 a30.4,30.4 0 0 1 -30.4,-30.4 v-0 z"></path></svg>